<?xml version="1.0" encoding="UTF-8"?>
<svg version="1.1" xmlns="http://www.w3.org/2000/svg" width="180" height="180">
<path d="M0 0 C2.4375 1.5 2.4375 1.5 4 4 C4.32111824 6.75845833 4.18630402 9.20543968 4 12 C3.34 12 2.68 12 2 12 C5.0032995 20.37762493 8.47812895 28.51067878 12.125 36.625 C12.5566748 37.59711426 12.98834961 38.56922852 13.43310547 39.57080078 C14.05789795 40.94727783 14.05789795 40.94727783 14.6953125 42.3515625 C15.06672363 43.17479004 15.43813477 43.99801758 15.82080078 44.84619141 C16.89449451 47.051817 16.89449451 47.051817 18.65185547 48.63037109 C19.09674316 49.08234863 19.54163086 49.53432617 20 50 C19.875 52.5625 19.875 52.5625 19 55 C16 57 16 57 13.9375 56.6875 C12 56 12 56 10 55 C9.18359375 52.85546875 9.18359375 52.85546875 8.4375 50.1875 C8.18871094 49.31480469 7.93992188 48.44210938 7.68359375 47.54296875 C7.09896325 45.36814328 6.54619856 43.18479422 6 41 C-1.59 41.33 -9.18 41.66 -17 42 C-19.31 46.62 -21.62 51.24 -24 56 C-26.64 56 -29.28 56 -32 56 C-31.42117813 50.99018015 -29.77858354 46.82310403 -27.65625 42.30078125 C-27.32709595 41.58391647 -26.99794189 40.8670517 -26.65881348 40.12846375 C-25.61263496 37.85328586 -24.55672486 35.58279603 -23.5 33.3125 C-22.44527122 31.03062098 -21.39257344 28.74782184 -20.34118652 26.46440125 C-19.68804661 25.04762278 -19.0326147 23.63189815 -18.37463379 22.21736145 C-17.115721 19.49999743 -15.94803167 16.844095 -15 14 C-13.125 14.1875 -13.125 14.1875 -11 15 C-9.30673175 17.82211374 -8.97321644 19.58931873 -9.1875 22.875 C-10.12529816 26.48191601 -11.44340074 29.61608857 -13 33 C-8.38 32.67 -3.76 32.34 1 32 C-0.23702504 29.22269864 -1.48874079 26.45377242 -2.75 23.6875 C-3.09804687 22.90181641 -3.44609375 22.11613281 -3.8046875 21.30664062 C-5.73318901 17.11036419 -7.11894451 14.64461303 -11 12 C-11.56153595 7.57790439 -11.79893062 5.27828899 -9.4375 1.5 C-6.05111671 -0.58392818 -3.90614682 -0.55802097 0 0 Z M-5 6 C-5 6.99 -5 7.98 -5 9 C-4.01 9 -3.02 9 -2 9 C-2.33 8.01 -2.66 7.02 -3 6 C-3.66 6 -4.32 6 -5 6 Z " fill="#BEBDBD" transform="translate(115,61)"/>
<path d="M0 0 C2.97 0 5.94 0 9 0 C12.12950829 5.99942603 15.05459286 12.09999478 17.875 18.25 C18.19734619 18.92289063 18.51969238 19.59578125 18.85180664 20.2890625 C20.80521059 24.62543717 21.31119533 27.41417838 20 32 C18.9375 34.375 18.9375 34.375 18 36 C14.53238854 34.60959849 13.33787415 33.38192366 11.859375 29.97265625 C11.51132813 29.18052734 11.16328125 28.38839844 10.8046875 27.57226562 C10.45664063 26.74404297 10.10859375 25.91582031 9.75 25.0625 C9.38648437 24.23814453 9.02296875 23.41378906 8.6484375 22.56445312 C6 16.43620771 6 16.43620771 6 13 C5.34 13 4.68 13 4 13 C3.773125 13.763125 3.54625 14.52625 3.3125 15.3125 C1.51834512 20.35322087 -0.74058077 25.15345951 -3 30 C-2.24074219 29.94199219 -1.48148438 29.88398437 -0.69921875 29.82421875 C2.26704581 29.68956342 5.05058618 29.64328623 8 30 C10.6769433 32.82991149 11 34.13680915 11 38 C10.03578125 38.06058594 9.0715625 38.12117188 8.078125 38.18359375 C6.81484375 38.26738281 5.5515625 38.35117188 4.25 38.4375 C2.99703125 38.51871094 1.7440625 38.59992188 0.453125 38.68359375 C-1.25617188 38.84021484 -1.25617188 38.84021484 -3 39 C-3.74378906 39.05285156 -4.48757812 39.10570312 -5.25390625 39.16015625 C-8.18133725 40.56820472 -8.87105426 43.13021598 -10.1875 46 C-12.96688742 51.96688742 -12.96688742 51.96688742 -14 53 C-16.67058851 53.14115161 -19.32432238 53.04247107 -22 53 C-21.38544508 49.33730194 -20.36457879 46.23712158 -18.84765625 42.8515625 C-18.40526611 41.85632568 -17.96287598 40.86108887 -17.50708008 39.83569336 C-17.03036865 38.77616455 -16.55365723 37.71663574 -16.0625 36.625 C-15.06719114 34.38955312 -14.07241248 32.15387011 -13.078125 29.91796875 C-12.56958984 28.77763184 -12.06105469 27.63729492 -11.53710938 26.46240234 C-9.09774284 20.96762849 -6.70418682 15.45315609 -4.3125 9.9375 C-3.66196655 8.43920654 -3.66196655 8.43920654 -2.99829102 6.91064453 C-1.99831375 4.60733299 -0.99886787 2.3037928 0 0 Z " fill="#D0D0D0" transform="translate(71,64)"/>
<path d="M0 0 C2.4375 1.5 2.4375 1.5 4 4 C4.32111824 6.75845833 4.18630402 9.20543968 4 12 C3.34 12 2.68 12 2 12 C2.99 15.63 3.98 19.26 5 23 C1.91330796 19.91330796 1.55144911 19.08072342 1 15 C-0.32 15 -1.64 15 -3 15 C-2.21496104 19.96288997 -0.23023093 23.98564142 1.94140625 28.4765625 C3 31 3 31 3 34 C-2.94 34 -8.88 34 -15 34 C-14.34 32.35 -13.68 30.7 -13 29 C-12.67 29.66 -12.34 30.32 -12 31 C-12.33 31.66 -12.66 32.32 -13 33 C-8.38 32.67 -3.76 32.34 1 32 C-0.23702504 29.22269864 -1.48874079 26.45377242 -2.75 23.6875 C-3.27207031 22.50897461 -3.27207031 22.50897461 -3.8046875 21.30664062 C-5.73318901 17.11036419 -7.11894451 14.64461303 -11 12 C-11.56153595 7.57790439 -11.79893062 5.27828899 -9.4375 1.5 C-6.05111671 -0.58392818 -3.90614682 -0.55802097 0 0 Z M-5 6 C-5 6.99 -5 7.98 -5 9 C-4.01 9 -3.02 9 -2 9 C-2.33 8.01 -2.66 7.02 -3 6 C-3.66 6 -4.32 6 -5 6 Z " fill="#797979" transform="translate(115,61)"/>
<path d="M0 0 C0.33 0.66 0.66 1.32 1 2 C0.0625 4.125 0.0625 4.125 -1 6 C0.13888672 5.91298828 0.13888672 5.91298828 1.30078125 5.82421875 C4.26704581 5.68956342 7.05058618 5.64328623 10 6 C12.6769433 8.82991149 13 10.13680915 13 14 C12.03578125 14.06058594 11.0715625 14.12117188 10.078125 14.18359375 C8.81484375 14.26738281 7.5515625 14.35117188 6.25 14.4375 C4.99703125 14.51871094 3.7440625 14.59992188 2.453125 14.68359375 C1.31359375 14.78800781 0.1740625 14.89242187 -1 15 C-2.11568359 15.07927734 -2.11568359 15.07927734 -3.25390625 15.16015625 C-6.18133725 16.56820472 -6.87105426 19.13021598 -8.1875 22 C-10.96688742 27.96688742 -10.96688742 27.96688742 -12 29 C-14.67058851 29.14115161 -17.32432238 29.04247107 -20 29 C-19.33501617 24.61110675 -17.81242323 21.0188515 -16 17 C-15.3125 18.625 -15.3125 18.625 -15 21 C-16.4375 24.25 -16.4375 24.25 -18 27 C-15.10244221 27.01908117 -15.10244221 27.01908117 -12 26 C-9.96843539 23.05126825 -9.96843539 23.05126825 -8.625 19.4375 C-7.325625 16.2509375 -7.325625 16.2509375 -6 13 C-0.39 13 5.22 13 11 13 C10.34 11.35 9.68 9.7 9 8 C3.555 7.505 3.555 7.505 -2 7 C-1.125 1.125 -1.125 1.125 0 0 Z " fill="#3E3E3E" transform="translate(69,88)"/>
<path d="M0 0 C0.66 0 1.32 0 2 0 C2.29769287 0.6612085 2.59538574 1.32241699 2.90209961 2.00366211 C4.2448945 4.9826687 5.59114902 7.96009899 6.9375 10.9375 C7.40607422 11.97841797 7.87464844 13.01933594 8.35742188 14.09179688 C8.80537109 15.08115234 9.25332031 16.07050781 9.71484375 17.08984375 C10.12855225 18.00628662 10.54226074 18.92272949 10.96850586 19.86694336 C11.82337906 21.93296129 11.82337906 21.93296129 13 23 C13.99 20.69 14.98 18.38 16 16 C16.6875 17.625 16.6875 17.625 17 20 C15.5625 23.25 15.5625 23.25 14 26 C10.53238854 24.60959849 9.33787415 23.38192366 7.859375 19.97265625 C7.51132813 19.18052734 7.16328125 18.38839844 6.8046875 17.57226562 C6.45664063 16.74404297 6.10859375 15.91582031 5.75 15.0625 C5.38648437 14.23814453 5.02296875 13.41378906 4.6484375 12.56445312 C2 6.43620771 2 6.43620771 2 3 C1.34 3 0.68 3 0 3 C-0.33 3.66 -0.66 4.32 -1 5 C-0.67 3.35 -0.34 1.7 0 0 Z " fill="#474747" transform="translate(75,74)"/>
<path d="M0 0 C0.33 0.66 0.66 1.32 1 2 C1.66 2 2.32 2 3 2 C6.2 9.13846154 6.2 9.13846154 5.1875 13.5 C4.795625 14.325 4.40375 15.15 4 16 C2.47110271 13.70665406 1.10224901 11.4883456 -0.1875 9.0625 C-0.55230469 8.39347656 -0.91710937 7.72445312 -1.29296875 7.03515625 C-2.14335981 4.58734553 -1.89615767 3.3983873 -1 1 C-0.67 0.67 -0.34 0.34 0 0 Z " fill="#F0F0F0" transform="translate(113,74)"/>
<path d="M0 0 C0.66 0.99 1.32 1.98 2 3 C-1 5 -1 5 -4 5 C-4.33 6.32 -4.66 7.64 -5 9 C-5.66 9 -6.32 9 -7 9 C-7.33 9.66 -7.66 10.32 -8 11 C-8.75 7.75 -8.75 7.75 -9 4 C-6.54300973 0.31451459 -4.39341363 -0.80931304 0 0 Z " fill="#E7E7E7" transform="translate(114,62)"/>
<path d="M0 0 C0.6875 1.625 0.6875 1.625 1 4 C-0.4375 7.25 -0.4375 7.25 -2 10 C-0.02 10 1.96 10 4 10 C4.66 8.35 5.32 6.7 6 5 C6.33 5.66 6.66 6.32 7 7 C6.0625 9.625 6.0625 9.625 4 12 C1.20486209 12.45668592 -1.14221385 12.23424477 -4 12 C-3.45660208 7.43545749 -2.20536179 4.0271824 0 0 Z " fill="#484848" transform="translate(87,105)"/>
<path d="M0 0 C0.66 0 1.32 0 2 0 C3.6875 1.6875 3.6875 1.6875 5 4 C4.6875 6.75 4.6875 6.75 4 9 C2.35 9 0.7 9 -1 9 C-1.125 2.25 -1.125 2.25 0 0 Z " fill="#F2F2F2" transform="translate(128,107)"/>
</svg>
